<mxfile host="Electron" modified="2023-09-08T23:12:24.740Z" agent="Mozilla/5.0 (Macintosh; Intel Mac OS X 10_15_7) AppleWebKit/537.36 (KHTML, like Gecko) draw.io/21.6.8 Chrome/114.0.5735.289 Electron/25.5.0 Safari/537.36" etag="zitPyyPMQnXMU283QxxF" version="21.6.8" type="device">
  <diagram name="Page-1" id="a-By_vlKWL0iiULW9Bkw">
    <mxGraphModel dx="2284" dy="889" grid="1" gridSize="10" guides="1" tooltips="1" connect="1" arrows="1" fold="1" page="1" pageScale="1" pageWidth="850" pageHeight="1100" math="0" shadow="0">
      <root>
        <mxCell id="0" />
        <mxCell id="1" parent="0" />
        <mxCell id="5SNasLUA0fVGktQmLtoh-31" style="edgeStyle=orthogonalEdgeStyle;rounded=0;orthogonalLoop=1;jettySize=auto;html=1;entryX=0.535;entryY=0.025;entryDx=0;entryDy=0;entryPerimeter=0;strokeWidth=2;" edge="1" parent="1">
          <mxGeometry relative="1" as="geometry">
            <mxPoint x="-60" y="708" as="sourcePoint" />
            <mxPoint x="-59.950000000000045" y="753.5" as="targetPoint" />
          </mxGeometry>
        </mxCell>
        <mxCell id="OKZaaLTwBY9ERp_DFy4D-2" value="block cipher&lt;br style=&quot;font-size: 21px;&quot;&gt;encryption" style="rounded=0;whiteSpace=wrap;html=1;fontSize=21;strokeWidth=2;" parent="1" vertex="1">
          <mxGeometry x="-140" y="633" width="165" height="70" as="geometry" />
        </mxCell>
        <mxCell id="5SNasLUA0fVGktQmLtoh-3" value="" style="shape=table;startSize=0;container=1;collapsible=0;childLayout=tableLayout;strokeWidth=2;" vertex="1" parent="1">
          <mxGeometry x="-175" y="918" width="230" height="20" as="geometry" />
        </mxCell>
        <mxCell id="5SNasLUA0fVGktQmLtoh-4" value="" style="shape=tableRow;horizontal=0;startSize=0;swimlaneHead=0;swimlaneBody=0;strokeColor=inherit;top=0;left=0;bottom=0;right=0;collapsible=0;dropTarget=0;fillColor=none;points=[[0,0.5],[1,0.5]];portConstraint=eastwest;" vertex="1" parent="5SNasLUA0fVGktQmLtoh-3">
          <mxGeometry width="230" height="20" as="geometry" />
        </mxCell>
        <mxCell id="5SNasLUA0fVGktQmLtoh-5" value="" style="shape=partialRectangle;html=1;whiteSpace=wrap;connectable=0;strokeColor=inherit;overflow=hidden;fillColor=none;top=0;left=0;bottom=0;right=0;pointerEvents=1;" vertex="1" parent="5SNasLUA0fVGktQmLtoh-4">
          <mxGeometry width="23" height="20" as="geometry">
            <mxRectangle width="23" height="20" as="alternateBounds" />
          </mxGeometry>
        </mxCell>
        <mxCell id="5SNasLUA0fVGktQmLtoh-6" value="" style="shape=partialRectangle;html=1;whiteSpace=wrap;connectable=0;strokeColor=inherit;overflow=hidden;fillColor=none;top=0;left=0;bottom=0;right=0;pointerEvents=1;" vertex="1" parent="5SNasLUA0fVGktQmLtoh-4">
          <mxGeometry x="23" width="23" height="20" as="geometry">
            <mxRectangle width="23" height="20" as="alternateBounds" />
          </mxGeometry>
        </mxCell>
        <mxCell id="5SNasLUA0fVGktQmLtoh-7" value="" style="shape=partialRectangle;html=1;whiteSpace=wrap;connectable=0;strokeColor=inherit;overflow=hidden;fillColor=none;top=0;left=0;bottom=0;right=0;pointerEvents=1;" vertex="1" parent="5SNasLUA0fVGktQmLtoh-4">
          <mxGeometry x="46" width="23" height="20" as="geometry">
            <mxRectangle width="23" height="20" as="alternateBounds" />
          </mxGeometry>
        </mxCell>
        <mxCell id="5SNasLUA0fVGktQmLtoh-8" value="" style="shape=partialRectangle;html=1;whiteSpace=wrap;connectable=0;strokeColor=inherit;overflow=hidden;fillColor=none;top=0;left=0;bottom=0;right=0;pointerEvents=1;" vertex="1" parent="5SNasLUA0fVGktQmLtoh-4">
          <mxGeometry x="69" width="23" height="20" as="geometry">
            <mxRectangle width="23" height="20" as="alternateBounds" />
          </mxGeometry>
        </mxCell>
        <mxCell id="5SNasLUA0fVGktQmLtoh-9" value="" style="shape=partialRectangle;html=1;whiteSpace=wrap;connectable=0;strokeColor=inherit;overflow=hidden;fillColor=none;top=0;left=0;bottom=0;right=0;pointerEvents=1;" vertex="1" parent="5SNasLUA0fVGktQmLtoh-4">
          <mxGeometry x="92" width="23" height="20" as="geometry">
            <mxRectangle width="23" height="20" as="alternateBounds" />
          </mxGeometry>
        </mxCell>
        <mxCell id="5SNasLUA0fVGktQmLtoh-10" value="" style="shape=partialRectangle;html=1;whiteSpace=wrap;connectable=0;strokeColor=inherit;overflow=hidden;fillColor=none;top=0;left=0;bottom=0;right=0;pointerEvents=1;" vertex="1" parent="5SNasLUA0fVGktQmLtoh-4">
          <mxGeometry x="115" width="23" height="20" as="geometry">
            <mxRectangle width="23" height="20" as="alternateBounds" />
          </mxGeometry>
        </mxCell>
        <mxCell id="5SNasLUA0fVGktQmLtoh-11" value="" style="shape=partialRectangle;html=1;whiteSpace=wrap;connectable=0;strokeColor=inherit;overflow=hidden;fillColor=none;top=0;left=0;bottom=0;right=0;pointerEvents=1;" vertex="1" parent="5SNasLUA0fVGktQmLtoh-4">
          <mxGeometry x="138" width="23" height="20" as="geometry">
            <mxRectangle width="23" height="20" as="alternateBounds" />
          </mxGeometry>
        </mxCell>
        <mxCell id="5SNasLUA0fVGktQmLtoh-12" value="" style="shape=partialRectangle;html=1;whiteSpace=wrap;connectable=0;strokeColor=inherit;overflow=hidden;fillColor=none;top=0;left=0;bottom=0;right=0;pointerEvents=1;" vertex="1" parent="5SNasLUA0fVGktQmLtoh-4">
          <mxGeometry x="161" width="26" height="20" as="geometry">
            <mxRectangle width="26" height="20" as="alternateBounds" />
          </mxGeometry>
        </mxCell>
        <mxCell id="5SNasLUA0fVGktQmLtoh-13" value="" style="shape=partialRectangle;html=1;whiteSpace=wrap;connectable=0;strokeColor=inherit;overflow=hidden;fillColor=none;top=0;left=0;bottom=0;right=0;pointerEvents=1;" vertex="1" parent="5SNasLUA0fVGktQmLtoh-4">
          <mxGeometry x="187" width="20" height="20" as="geometry">
            <mxRectangle width="20" height="20" as="alternateBounds" />
          </mxGeometry>
        </mxCell>
        <mxCell id="5SNasLUA0fVGktQmLtoh-14" value="" style="shape=partialRectangle;html=1;whiteSpace=wrap;connectable=0;strokeColor=inherit;overflow=hidden;fillColor=none;top=0;left=0;bottom=0;right=0;pointerEvents=1;" vertex="1" parent="5SNasLUA0fVGktQmLtoh-4">
          <mxGeometry x="207" width="23" height="20" as="geometry">
            <mxRectangle width="23" height="20" as="alternateBounds" />
          </mxGeometry>
        </mxCell>
        <mxCell id="5SNasLUA0fVGktQmLtoh-15" value="" style="shape=table;startSize=0;container=1;collapsible=0;childLayout=tableLayout;strokeWidth=2;" vertex="1" parent="1">
          <mxGeometry x="-318" y="866" width="230" height="20" as="geometry" />
        </mxCell>
        <mxCell id="5SNasLUA0fVGktQmLtoh-16" value="" style="shape=tableRow;horizontal=0;startSize=0;swimlaneHead=0;swimlaneBody=0;strokeColor=inherit;top=0;left=0;bottom=0;right=0;collapsible=0;dropTarget=0;fillColor=none;points=[[0,0.5],[1,0.5]];portConstraint=eastwest;" vertex="1" parent="5SNasLUA0fVGktQmLtoh-15">
          <mxGeometry width="230" height="20" as="geometry" />
        </mxCell>
        <mxCell id="5SNasLUA0fVGktQmLtoh-17" value="" style="shape=partialRectangle;html=1;whiteSpace=wrap;connectable=0;strokeColor=inherit;overflow=hidden;fillColor=none;top=0;left=0;bottom=0;right=0;pointerEvents=1;" vertex="1" parent="5SNasLUA0fVGktQmLtoh-16">
          <mxGeometry width="23" height="20" as="geometry">
            <mxRectangle width="23" height="20" as="alternateBounds" />
          </mxGeometry>
        </mxCell>
        <mxCell id="5SNasLUA0fVGktQmLtoh-18" value="" style="shape=partialRectangle;html=1;whiteSpace=wrap;connectable=0;strokeColor=inherit;overflow=hidden;fillColor=none;top=0;left=0;bottom=0;right=0;pointerEvents=1;" vertex="1" parent="5SNasLUA0fVGktQmLtoh-16">
          <mxGeometry x="23" width="23" height="20" as="geometry">
            <mxRectangle width="23" height="20" as="alternateBounds" />
          </mxGeometry>
        </mxCell>
        <mxCell id="5SNasLUA0fVGktQmLtoh-19" value="" style="shape=partialRectangle;html=1;whiteSpace=wrap;connectable=0;strokeColor=inherit;overflow=hidden;fillColor=none;top=0;left=0;bottom=0;right=0;pointerEvents=1;" vertex="1" parent="5SNasLUA0fVGktQmLtoh-16">
          <mxGeometry x="46" width="23" height="20" as="geometry">
            <mxRectangle width="23" height="20" as="alternateBounds" />
          </mxGeometry>
        </mxCell>
        <mxCell id="5SNasLUA0fVGktQmLtoh-20" value="" style="shape=partialRectangle;html=1;whiteSpace=wrap;connectable=0;strokeColor=inherit;overflow=hidden;fillColor=none;top=0;left=0;bottom=0;right=0;pointerEvents=1;" vertex="1" parent="5SNasLUA0fVGktQmLtoh-16">
          <mxGeometry x="69" width="26" height="20" as="geometry">
            <mxRectangle width="26" height="20" as="alternateBounds" />
          </mxGeometry>
        </mxCell>
        <mxCell id="5SNasLUA0fVGktQmLtoh-21" value="" style="shape=partialRectangle;html=1;whiteSpace=wrap;connectable=0;strokeColor=inherit;overflow=hidden;fillColor=none;top=0;left=0;bottom=0;right=0;pointerEvents=1;" vertex="1" parent="5SNasLUA0fVGktQmLtoh-16">
          <mxGeometry x="95" width="20" height="20" as="geometry">
            <mxRectangle width="20" height="20" as="alternateBounds" />
          </mxGeometry>
        </mxCell>
        <mxCell id="5SNasLUA0fVGktQmLtoh-22" value="" style="shape=partialRectangle;html=1;whiteSpace=wrap;connectable=0;strokeColor=inherit;overflow=hidden;fillColor=none;top=0;left=0;bottom=0;right=0;pointerEvents=1;" vertex="1" parent="5SNasLUA0fVGktQmLtoh-16">
          <mxGeometry x="115" width="23" height="20" as="geometry">
            <mxRectangle width="23" height="20" as="alternateBounds" />
          </mxGeometry>
        </mxCell>
        <mxCell id="5SNasLUA0fVGktQmLtoh-23" value="" style="shape=partialRectangle;html=1;whiteSpace=wrap;connectable=0;strokeColor=inherit;overflow=hidden;fillColor=none;top=0;left=0;bottom=0;right=0;pointerEvents=1;" vertex="1" parent="5SNasLUA0fVGktQmLtoh-16">
          <mxGeometry x="138" width="23" height="20" as="geometry">
            <mxRectangle width="23" height="20" as="alternateBounds" />
          </mxGeometry>
        </mxCell>
        <mxCell id="5SNasLUA0fVGktQmLtoh-24" value="" style="shape=partialRectangle;html=1;whiteSpace=wrap;connectable=0;strokeColor=inherit;overflow=hidden;fillColor=none;top=0;left=0;bottom=0;right=0;pointerEvents=1;" vertex="1" parent="5SNasLUA0fVGktQmLtoh-16">
          <mxGeometry x="161" width="23" height="20" as="geometry">
            <mxRectangle width="23" height="20" as="alternateBounds" />
          </mxGeometry>
        </mxCell>
        <mxCell id="5SNasLUA0fVGktQmLtoh-25" value="" style="shape=partialRectangle;html=1;whiteSpace=wrap;connectable=0;strokeColor=inherit;overflow=hidden;fillColor=none;top=0;left=0;bottom=0;right=0;pointerEvents=1;" vertex="1" parent="5SNasLUA0fVGktQmLtoh-16">
          <mxGeometry x="184" width="23" height="20" as="geometry">
            <mxRectangle width="23" height="20" as="alternateBounds" />
          </mxGeometry>
        </mxCell>
        <mxCell id="5SNasLUA0fVGktQmLtoh-26" value="" style="shape=partialRectangle;html=1;whiteSpace=wrap;connectable=0;strokeColor=inherit;overflow=hidden;fillColor=none;top=0;left=0;bottom=0;right=0;pointerEvents=1;" vertex="1" parent="5SNasLUA0fVGktQmLtoh-16">
          <mxGeometry x="207" width="23" height="20" as="geometry">
            <mxRectangle width="23" height="20" as="alternateBounds" />
          </mxGeometry>
        </mxCell>
        <mxCell id="5SNasLUA0fVGktQmLtoh-27" value="&lt;font style=&quot;font-size: 21px;&quot;&gt;Ciphertext&lt;/font&gt;" style="text;html=1;align=center;verticalAlign=middle;resizable=0;points=[];autosize=1;strokeColor=none;fillColor=none;" vertex="1" parent="1">
          <mxGeometry x="-120" y="932" width="120" height="40" as="geometry" />
        </mxCell>
        <mxCell id="5SNasLUA0fVGktQmLtoh-28" value="&lt;font style=&quot;font-size: 21px;&quot;&gt;Plaintext&lt;/font&gt;" style="text;html=1;align=center;verticalAlign=middle;resizable=0;points=[];autosize=1;strokeColor=none;fillColor=none;" vertex="1" parent="1">
          <mxGeometry x="-240" y="828" width="100" height="40" as="geometry" />
        </mxCell>
        <mxCell id="5SNasLUA0fVGktQmLtoh-30" style="edgeStyle=orthogonalEdgeStyle;rounded=0;orthogonalLoop=1;jettySize=auto;html=1;entryX=0;entryY=0.5;entryDx=0;entryDy=0;strokeWidth=2;" edge="1" parent="1">
          <mxGeometry relative="1" as="geometry">
            <mxPoint x="-215" y="668" as="sourcePoint" />
            <mxPoint x="-160" y="668" as="targetPoint" />
          </mxGeometry>
        </mxCell>
        <mxCell id="5SNasLUA0fVGktQmLtoh-29" value="&lt;font style=&quot;font-size: 21px;&quot;&gt;Key&lt;/font&gt;" style="text;html=1;align=center;verticalAlign=middle;resizable=0;points=[];autosize=1;strokeColor=none;fillColor=none;" vertex="1" parent="1">
          <mxGeometry x="-270" y="648" width="60" height="40" as="geometry" />
        </mxCell>
        <mxCell id="5SNasLUA0fVGktQmLtoh-32" value="&lt;font style=&quot;font-size: 21px;&quot;&gt;Key&lt;/font&gt;" style="text;html=1;align=center;verticalAlign=middle;resizable=0;points=[];autosize=1;strokeColor=none;fillColor=none;" vertex="1" parent="1">
          <mxGeometry x="-89" y="550" width="60" height="40" as="geometry" />
        </mxCell>
        <mxCell id="5SNasLUA0fVGktQmLtoh-33" style="edgeStyle=orthogonalEdgeStyle;rounded=0;orthogonalLoop=1;jettySize=auto;html=1;strokeWidth=2;" edge="1" parent="1">
          <mxGeometry relative="1" as="geometry">
            <mxPoint x="-60" y="587" as="sourcePoint" />
            <mxPoint x="-60" y="627" as="targetPoint" />
          </mxGeometry>
        </mxCell>
        <mxCell id="5SNasLUA0fVGktQmLtoh-34" value="" style="shape=table;startSize=0;container=1;collapsible=0;childLayout=tableLayout;strokeWidth=2;" vertex="1" parent="1">
          <mxGeometry x="-370" y="760" width="230" height="20" as="geometry" />
        </mxCell>
        <mxCell id="5SNasLUA0fVGktQmLtoh-35" value="" style="shape=tableRow;horizontal=0;startSize=0;swimlaneHead=0;swimlaneBody=0;strokeColor=inherit;top=0;left=0;bottom=0;right=0;collapsible=0;dropTarget=0;fillColor=none;points=[[0,0.5],[1,0.5]];portConstraint=eastwest;" vertex="1" parent="5SNasLUA0fVGktQmLtoh-34">
          <mxGeometry width="230" height="20" as="geometry" />
        </mxCell>
        <mxCell id="5SNasLUA0fVGktQmLtoh-36" value="" style="shape=partialRectangle;html=1;whiteSpace=wrap;connectable=0;strokeColor=inherit;overflow=hidden;fillColor=none;top=0;left=0;bottom=0;right=0;pointerEvents=1;" vertex="1" parent="5SNasLUA0fVGktQmLtoh-35">
          <mxGeometry width="23" height="20" as="geometry">
            <mxRectangle width="23" height="20" as="alternateBounds" />
          </mxGeometry>
        </mxCell>
        <mxCell id="5SNasLUA0fVGktQmLtoh-37" value="" style="shape=partialRectangle;html=1;whiteSpace=wrap;connectable=0;strokeColor=inherit;overflow=hidden;fillColor=none;top=0;left=0;bottom=0;right=0;pointerEvents=1;" vertex="1" parent="5SNasLUA0fVGktQmLtoh-35">
          <mxGeometry x="23" width="23" height="20" as="geometry">
            <mxRectangle width="23" height="20" as="alternateBounds" />
          </mxGeometry>
        </mxCell>
        <mxCell id="5SNasLUA0fVGktQmLtoh-38" value="" style="shape=partialRectangle;html=1;whiteSpace=wrap;connectable=0;strokeColor=inherit;overflow=hidden;fillColor=none;top=0;left=0;bottom=0;right=0;pointerEvents=1;" vertex="1" parent="5SNasLUA0fVGktQmLtoh-35">
          <mxGeometry x="46" width="23" height="20" as="geometry">
            <mxRectangle width="23" height="20" as="alternateBounds" />
          </mxGeometry>
        </mxCell>
        <mxCell id="5SNasLUA0fVGktQmLtoh-39" value="" style="shape=partialRectangle;html=1;whiteSpace=wrap;connectable=0;strokeColor=inherit;overflow=hidden;fillColor=none;top=0;left=0;bottom=0;right=0;pointerEvents=1;" vertex="1" parent="5SNasLUA0fVGktQmLtoh-35">
          <mxGeometry x="69" width="23" height="20" as="geometry">
            <mxRectangle width="23" height="20" as="alternateBounds" />
          </mxGeometry>
        </mxCell>
        <mxCell id="5SNasLUA0fVGktQmLtoh-40" value="" style="shape=partialRectangle;html=1;whiteSpace=wrap;connectable=0;strokeColor=inherit;overflow=hidden;fillColor=none;top=0;left=0;bottom=0;right=0;pointerEvents=1;" vertex="1" parent="5SNasLUA0fVGktQmLtoh-35">
          <mxGeometry x="92" width="23" height="20" as="geometry">
            <mxRectangle width="23" height="20" as="alternateBounds" />
          </mxGeometry>
        </mxCell>
        <mxCell id="5SNasLUA0fVGktQmLtoh-41" value="" style="shape=partialRectangle;html=1;whiteSpace=wrap;connectable=0;strokeColor=inherit;overflow=hidden;fillColor=none;top=0;left=0;bottom=0;right=0;pointerEvents=1;" vertex="1" parent="5SNasLUA0fVGktQmLtoh-35">
          <mxGeometry x="115" width="23" height="20" as="geometry">
            <mxRectangle width="23" height="20" as="alternateBounds" />
          </mxGeometry>
        </mxCell>
        <mxCell id="5SNasLUA0fVGktQmLtoh-42" value="" style="shape=partialRectangle;html=1;whiteSpace=wrap;connectable=0;strokeColor=inherit;overflow=hidden;fillColor=none;top=0;left=0;bottom=0;right=0;pointerEvents=1;" vertex="1" parent="5SNasLUA0fVGktQmLtoh-35">
          <mxGeometry x="138" width="23" height="20" as="geometry">
            <mxRectangle width="23" height="20" as="alternateBounds" />
          </mxGeometry>
        </mxCell>
        <mxCell id="5SNasLUA0fVGktQmLtoh-43" value="" style="shape=partialRectangle;html=1;whiteSpace=wrap;connectable=0;strokeColor=inherit;overflow=hidden;fillColor=none;top=0;left=0;bottom=0;right=0;pointerEvents=1;" vertex="1" parent="5SNasLUA0fVGktQmLtoh-35">
          <mxGeometry x="161" width="23" height="20" as="geometry">
            <mxRectangle width="23" height="20" as="alternateBounds" />
          </mxGeometry>
        </mxCell>
        <mxCell id="5SNasLUA0fVGktQmLtoh-44" value="" style="shape=partialRectangle;html=1;whiteSpace=wrap;connectable=0;strokeColor=inherit;overflow=hidden;fillColor=none;top=0;left=0;bottom=0;right=0;pointerEvents=1;" vertex="1" parent="5SNasLUA0fVGktQmLtoh-35">
          <mxGeometry x="184" width="23" height="20" as="geometry">
            <mxRectangle width="23" height="20" as="alternateBounds" />
          </mxGeometry>
        </mxCell>
        <mxCell id="5SNasLUA0fVGktQmLtoh-45" value="" style="shape=partialRectangle;html=1;whiteSpace=wrap;connectable=0;strokeColor=inherit;overflow=hidden;fillColor=none;top=0;left=0;bottom=0;right=0;pointerEvents=1;" vertex="1" parent="5SNasLUA0fVGktQmLtoh-35">
          <mxGeometry x="207" width="23" height="20" as="geometry">
            <mxRectangle width="23" height="20" as="alternateBounds" />
          </mxGeometry>
        </mxCell>
        <mxCell id="5SNasLUA0fVGktQmLtoh-46" value="&lt;font style=&quot;font-size: 21px;&quot;&gt;Initialization Vector (IV)&lt;/font&gt;" style="text;html=1;align=center;verticalAlign=middle;resizable=0;points=[];autosize=1;strokeColor=none;fillColor=none;" vertex="1" parent="1">
          <mxGeometry x="-380" y="720" width="240" height="40" as="geometry" />
        </mxCell>
        <mxCell id="5SNasLUA0fVGktQmLtoh-47" value="" style="shape=image;verticalLabelPosition=bottom;labelBackgroundColor=default;verticalAlign=top;aspect=fixed;imageAspect=0;image=https://images.freeimages.com/vhq/images/previews/20d/logic-xor-symbol-clip-art-76039.jpg;" vertex="1" parent="1">
          <mxGeometry x="-75" y="755" width="30" height="30" as="geometry" />
        </mxCell>
        <mxCell id="5SNasLUA0fVGktQmLtoh-48" style="edgeStyle=orthogonalEdgeStyle;rounded=0;orthogonalLoop=1;jettySize=auto;html=1;entryX=0.535;entryY=0.025;entryDx=0;entryDy=0;entryPerimeter=0;strokeWidth=2;" edge="1" parent="1">
          <mxGeometry relative="1" as="geometry">
            <mxPoint x="-59" y="791" as="sourcePoint" />
            <mxPoint x="-58.950000000000045" y="836.5" as="targetPoint" />
          </mxGeometry>
        </mxCell>
        <mxCell id="5SNasLUA0fVGktQmLtoh-49" value="" style="shape=image;verticalLabelPosition=bottom;labelBackgroundColor=default;verticalAlign=top;aspect=fixed;imageAspect=0;image=https://images.freeimages.com/vhq/images/previews/20d/logic-xor-symbol-clip-art-76039.jpg;" vertex="1" parent="1">
          <mxGeometry x="-74" y="838" width="30" height="30" as="geometry" />
        </mxCell>
        <mxCell id="5SNasLUA0fVGktQmLtoh-50" style="edgeStyle=orthogonalEdgeStyle;rounded=0;orthogonalLoop=1;jettySize=auto;html=1;entryX=0.535;entryY=0.025;entryDx=0;entryDy=0;entryPerimeter=0;strokeWidth=2;" edge="1" parent="1">
          <mxGeometry relative="1" as="geometry">
            <mxPoint x="-59" y="870" as="sourcePoint" />
            <mxPoint x="-58.950000000000045" y="915.5" as="targetPoint" />
          </mxGeometry>
        </mxCell>
        <mxCell id="5SNasLUA0fVGktQmLtoh-51" style="edgeStyle=orthogonalEdgeStyle;rounded=0;orthogonalLoop=1;jettySize=auto;html=1;entryX=0;entryY=0.5;entryDx=0;entryDy=0;strokeWidth=2;" edge="1" parent="1">
          <mxGeometry relative="1" as="geometry">
            <mxPoint x="-133" y="769" as="sourcePoint" />
            <mxPoint x="-78" y="769" as="targetPoint" />
          </mxGeometry>
        </mxCell>
        <mxCell id="5SNasLUA0fVGktQmLtoh-52" style="edgeStyle=orthogonalEdgeStyle;rounded=0;orthogonalLoop=1;jettySize=auto;html=1;entryX=0;entryY=0.5;entryDx=0;entryDy=0;strokeWidth=2;" edge="1" parent="1">
          <mxGeometry relative="1" as="geometry">
            <mxPoint x="-132" y="851" as="sourcePoint" />
            <mxPoint x="-77" y="851" as="targetPoint" />
          </mxGeometry>
        </mxCell>
        <mxCell id="5SNasLUA0fVGktQmLtoh-54" value="block cipher&lt;br style=&quot;font-size: 21px;&quot;&gt;encryption" style="rounded=0;whiteSpace=wrap;html=1;fontSize=21;strokeWidth=2;" vertex="1" parent="1">
          <mxGeometry x="210" y="710" width="190" height="70" as="geometry" />
        </mxCell>
        <mxCell id="5SNasLUA0fVGktQmLtoh-55" value="" style="shape=table;startSize=0;container=1;collapsible=0;childLayout=tableLayout;strokeWidth=2;" vertex="1" parent="1">
          <mxGeometry x="190" y="918" width="230" height="20" as="geometry" />
        </mxCell>
        <mxCell id="5SNasLUA0fVGktQmLtoh-56" value="" style="shape=tableRow;horizontal=0;startSize=0;swimlaneHead=0;swimlaneBody=0;strokeColor=inherit;top=0;left=0;bottom=0;right=0;collapsible=0;dropTarget=0;fillColor=none;points=[[0,0.5],[1,0.5]];portConstraint=eastwest;" vertex="1" parent="5SNasLUA0fVGktQmLtoh-55">
          <mxGeometry width="230" height="20" as="geometry" />
        </mxCell>
        <mxCell id="5SNasLUA0fVGktQmLtoh-57" value="" style="shape=partialRectangle;html=1;whiteSpace=wrap;connectable=0;strokeColor=inherit;overflow=hidden;fillColor=none;top=0;left=0;bottom=0;right=0;pointerEvents=1;" vertex="1" parent="5SNasLUA0fVGktQmLtoh-56">
          <mxGeometry width="23" height="20" as="geometry">
            <mxRectangle width="23" height="20" as="alternateBounds" />
          </mxGeometry>
        </mxCell>
        <mxCell id="5SNasLUA0fVGktQmLtoh-58" value="" style="shape=partialRectangle;html=1;whiteSpace=wrap;connectable=0;strokeColor=inherit;overflow=hidden;fillColor=none;top=0;left=0;bottom=0;right=0;pointerEvents=1;" vertex="1" parent="5SNasLUA0fVGktQmLtoh-56">
          <mxGeometry x="23" width="23" height="20" as="geometry">
            <mxRectangle width="23" height="20" as="alternateBounds" />
          </mxGeometry>
        </mxCell>
        <mxCell id="5SNasLUA0fVGktQmLtoh-59" value="" style="shape=partialRectangle;html=1;whiteSpace=wrap;connectable=0;strokeColor=inherit;overflow=hidden;fillColor=none;top=0;left=0;bottom=0;right=0;pointerEvents=1;" vertex="1" parent="5SNasLUA0fVGktQmLtoh-56">
          <mxGeometry x="46" width="23" height="20" as="geometry">
            <mxRectangle width="23" height="20" as="alternateBounds" />
          </mxGeometry>
        </mxCell>
        <mxCell id="5SNasLUA0fVGktQmLtoh-60" value="" style="shape=partialRectangle;html=1;whiteSpace=wrap;connectable=0;strokeColor=inherit;overflow=hidden;fillColor=none;top=0;left=0;bottom=0;right=0;pointerEvents=1;" vertex="1" parent="5SNasLUA0fVGktQmLtoh-56">
          <mxGeometry x="69" width="23" height="20" as="geometry">
            <mxRectangle width="23" height="20" as="alternateBounds" />
          </mxGeometry>
        </mxCell>
        <mxCell id="5SNasLUA0fVGktQmLtoh-61" value="" style="shape=partialRectangle;html=1;whiteSpace=wrap;connectable=0;strokeColor=inherit;overflow=hidden;fillColor=none;top=0;left=0;bottom=0;right=0;pointerEvents=1;" vertex="1" parent="5SNasLUA0fVGktQmLtoh-56">
          <mxGeometry x="92" width="23" height="20" as="geometry">
            <mxRectangle width="23" height="20" as="alternateBounds" />
          </mxGeometry>
        </mxCell>
        <mxCell id="5SNasLUA0fVGktQmLtoh-62" value="" style="shape=partialRectangle;html=1;whiteSpace=wrap;connectable=0;strokeColor=inherit;overflow=hidden;fillColor=none;top=0;left=0;bottom=0;right=0;pointerEvents=1;" vertex="1" parent="5SNasLUA0fVGktQmLtoh-56">
          <mxGeometry x="115" width="23" height="20" as="geometry">
            <mxRectangle width="23" height="20" as="alternateBounds" />
          </mxGeometry>
        </mxCell>
        <mxCell id="5SNasLUA0fVGktQmLtoh-63" value="" style="shape=partialRectangle;html=1;whiteSpace=wrap;connectable=0;strokeColor=inherit;overflow=hidden;fillColor=none;top=0;left=0;bottom=0;right=0;pointerEvents=1;" vertex="1" parent="5SNasLUA0fVGktQmLtoh-56">
          <mxGeometry x="138" width="23" height="20" as="geometry">
            <mxRectangle width="23" height="20" as="alternateBounds" />
          </mxGeometry>
        </mxCell>
        <mxCell id="5SNasLUA0fVGktQmLtoh-64" value="" style="shape=partialRectangle;html=1;whiteSpace=wrap;connectable=0;strokeColor=inherit;overflow=hidden;fillColor=none;top=0;left=0;bottom=0;right=0;pointerEvents=1;" vertex="1" parent="5SNasLUA0fVGktQmLtoh-56">
          <mxGeometry x="161" width="23" height="20" as="geometry">
            <mxRectangle width="23" height="20" as="alternateBounds" />
          </mxGeometry>
        </mxCell>
        <mxCell id="5SNasLUA0fVGktQmLtoh-65" value="" style="shape=partialRectangle;html=1;whiteSpace=wrap;connectable=0;strokeColor=inherit;overflow=hidden;fillColor=none;top=0;left=0;bottom=0;right=0;pointerEvents=1;" vertex="1" parent="5SNasLUA0fVGktQmLtoh-56">
          <mxGeometry x="184" width="23" height="20" as="geometry">
            <mxRectangle width="23" height="20" as="alternateBounds" />
          </mxGeometry>
        </mxCell>
        <mxCell id="5SNasLUA0fVGktQmLtoh-66" value="" style="shape=partialRectangle;html=1;whiteSpace=wrap;connectable=0;strokeColor=inherit;overflow=hidden;fillColor=none;top=0;left=0;bottom=0;right=0;pointerEvents=1;" vertex="1" parent="5SNasLUA0fVGktQmLtoh-56">
          <mxGeometry x="207" width="23" height="20" as="geometry">
            <mxRectangle width="23" height="20" as="alternateBounds" />
          </mxGeometry>
        </mxCell>
        <mxCell id="5SNasLUA0fVGktQmLtoh-67" value="" style="shape=table;startSize=0;container=1;collapsible=0;childLayout=tableLayout;strokeWidth=2;" vertex="1" parent="1">
          <mxGeometry x="61" y="868" width="230" height="20" as="geometry" />
        </mxCell>
        <mxCell id="5SNasLUA0fVGktQmLtoh-68" value="" style="shape=tableRow;horizontal=0;startSize=0;swimlaneHead=0;swimlaneBody=0;strokeColor=inherit;top=0;left=0;bottom=0;right=0;collapsible=0;dropTarget=0;fillColor=none;points=[[0,0.5],[1,0.5]];portConstraint=eastwest;" vertex="1" parent="5SNasLUA0fVGktQmLtoh-67">
          <mxGeometry width="230" height="20" as="geometry" />
        </mxCell>
        <mxCell id="5SNasLUA0fVGktQmLtoh-69" value="" style="shape=partialRectangle;html=1;whiteSpace=wrap;connectable=0;strokeColor=inherit;overflow=hidden;fillColor=none;top=0;left=0;bottom=0;right=0;pointerEvents=1;" vertex="1" parent="5SNasLUA0fVGktQmLtoh-68">
          <mxGeometry width="23" height="20" as="geometry">
            <mxRectangle width="23" height="20" as="alternateBounds" />
          </mxGeometry>
        </mxCell>
        <mxCell id="5SNasLUA0fVGktQmLtoh-70" value="" style="shape=partialRectangle;html=1;whiteSpace=wrap;connectable=0;strokeColor=inherit;overflow=hidden;fillColor=none;top=0;left=0;bottom=0;right=0;pointerEvents=1;" vertex="1" parent="5SNasLUA0fVGktQmLtoh-68">
          <mxGeometry x="23" width="23" height="20" as="geometry">
            <mxRectangle width="23" height="20" as="alternateBounds" />
          </mxGeometry>
        </mxCell>
        <mxCell id="5SNasLUA0fVGktQmLtoh-71" value="" style="shape=partialRectangle;html=1;whiteSpace=wrap;connectable=0;strokeColor=inherit;overflow=hidden;fillColor=none;top=0;left=0;bottom=0;right=0;pointerEvents=1;" vertex="1" parent="5SNasLUA0fVGktQmLtoh-68">
          <mxGeometry x="46" width="23" height="20" as="geometry">
            <mxRectangle width="23" height="20" as="alternateBounds" />
          </mxGeometry>
        </mxCell>
        <mxCell id="5SNasLUA0fVGktQmLtoh-72" value="" style="shape=partialRectangle;html=1;whiteSpace=wrap;connectable=0;strokeColor=inherit;overflow=hidden;fillColor=none;top=0;left=0;bottom=0;right=0;pointerEvents=1;" vertex="1" parent="5SNasLUA0fVGktQmLtoh-68">
          <mxGeometry x="69" width="23" height="20" as="geometry">
            <mxRectangle width="23" height="20" as="alternateBounds" />
          </mxGeometry>
        </mxCell>
        <mxCell id="5SNasLUA0fVGktQmLtoh-73" value="" style="shape=partialRectangle;html=1;whiteSpace=wrap;connectable=0;strokeColor=inherit;overflow=hidden;fillColor=none;top=0;left=0;bottom=0;right=0;pointerEvents=1;" vertex="1" parent="5SNasLUA0fVGktQmLtoh-68">
          <mxGeometry x="92" width="26" height="20" as="geometry">
            <mxRectangle width="26" height="20" as="alternateBounds" />
          </mxGeometry>
        </mxCell>
        <mxCell id="5SNasLUA0fVGktQmLtoh-74" value="" style="shape=partialRectangle;html=1;whiteSpace=wrap;connectable=0;strokeColor=inherit;overflow=hidden;fillColor=none;top=0;left=0;bottom=0;right=0;pointerEvents=1;" vertex="1" parent="5SNasLUA0fVGktQmLtoh-68">
          <mxGeometry x="118" width="20" height="20" as="geometry">
            <mxRectangle width="20" height="20" as="alternateBounds" />
          </mxGeometry>
        </mxCell>
        <mxCell id="5SNasLUA0fVGktQmLtoh-75" value="" style="shape=partialRectangle;html=1;whiteSpace=wrap;connectable=0;strokeColor=inherit;overflow=hidden;fillColor=none;top=0;left=0;bottom=0;right=0;pointerEvents=1;" vertex="1" parent="5SNasLUA0fVGktQmLtoh-68">
          <mxGeometry x="138" width="23" height="20" as="geometry">
            <mxRectangle width="23" height="20" as="alternateBounds" />
          </mxGeometry>
        </mxCell>
        <mxCell id="5SNasLUA0fVGktQmLtoh-76" value="" style="shape=partialRectangle;html=1;whiteSpace=wrap;connectable=0;strokeColor=inherit;overflow=hidden;fillColor=none;top=0;left=0;bottom=0;right=0;pointerEvents=1;" vertex="1" parent="5SNasLUA0fVGktQmLtoh-68">
          <mxGeometry x="161" width="23" height="20" as="geometry">
            <mxRectangle width="23" height="20" as="alternateBounds" />
          </mxGeometry>
        </mxCell>
        <mxCell id="5SNasLUA0fVGktQmLtoh-77" value="" style="shape=partialRectangle;html=1;whiteSpace=wrap;connectable=0;strokeColor=inherit;overflow=hidden;fillColor=none;top=0;left=0;bottom=0;right=0;pointerEvents=1;" vertex="1" parent="5SNasLUA0fVGktQmLtoh-68">
          <mxGeometry x="184" width="23" height="20" as="geometry">
            <mxRectangle width="23" height="20" as="alternateBounds" />
          </mxGeometry>
        </mxCell>
        <mxCell id="5SNasLUA0fVGktQmLtoh-78" value="" style="shape=partialRectangle;html=1;whiteSpace=wrap;connectable=0;strokeColor=inherit;overflow=hidden;fillColor=none;top=0;left=0;bottom=0;right=0;pointerEvents=1;" vertex="1" parent="5SNasLUA0fVGktQmLtoh-68">
          <mxGeometry x="207" width="23" height="20" as="geometry">
            <mxRectangle width="23" height="20" as="alternateBounds" />
          </mxGeometry>
        </mxCell>
        <mxCell id="5SNasLUA0fVGktQmLtoh-79" value="&lt;font style=&quot;font-size: 21px;&quot;&gt;Ciphertext&lt;/font&gt;" style="text;html=1;align=center;verticalAlign=middle;resizable=0;points=[];autosize=1;strokeColor=none;fillColor=none;" vertex="1" parent="1">
          <mxGeometry x="234" y="932" width="120" height="40" as="geometry" />
        </mxCell>
        <mxCell id="5SNasLUA0fVGktQmLtoh-80" value="&lt;font style=&quot;font-size: 21px;&quot;&gt;Plaintext&lt;/font&gt;" style="text;html=1;align=center;verticalAlign=middle;resizable=0;points=[];autosize=1;strokeColor=none;fillColor=none;" vertex="1" parent="1">
          <mxGeometry x="126" y="828" width="100" height="40" as="geometry" />
        </mxCell>
        <mxCell id="5SNasLUA0fVGktQmLtoh-81" style="edgeStyle=orthogonalEdgeStyle;rounded=0;orthogonalLoop=1;jettySize=auto;html=1;entryX=0;entryY=0.5;entryDx=0;entryDy=0;strokeWidth=2;" edge="1" parent="1">
          <mxGeometry relative="1" as="geometry">
            <mxPoint x="150" y="745" as="sourcePoint" />
            <mxPoint x="205" y="745" as="targetPoint" />
          </mxGeometry>
        </mxCell>
        <mxCell id="5SNasLUA0fVGktQmLtoh-82" value="&lt;font style=&quot;font-size: 21px;&quot;&gt;Key&lt;/font&gt;" style="text;html=1;align=center;verticalAlign=middle;resizable=0;points=[];autosize=1;strokeColor=none;fillColor=none;" vertex="1" parent="1">
          <mxGeometry x="95" y="725" width="60" height="40" as="geometry" />
        </mxCell>
        <mxCell id="5SNasLUA0fVGktQmLtoh-84" style="edgeStyle=orthogonalEdgeStyle;rounded=0;orthogonalLoop=1;jettySize=auto;html=1;strokeWidth=2;" edge="1" parent="1">
          <mxGeometry relative="1" as="geometry">
            <mxPoint x="294" y="660" as="sourcePoint" />
            <mxPoint x="304" y="700" as="targetPoint" />
            <Array as="points">
              <mxPoint x="304" y="660" />
              <mxPoint x="304" y="700" />
            </Array>
          </mxGeometry>
        </mxCell>
        <mxCell id="5SNasLUA0fVGktQmLtoh-99" style="edgeStyle=orthogonalEdgeStyle;rounded=0;orthogonalLoop=1;jettySize=auto;html=1;entryX=0.535;entryY=0.025;entryDx=0;entryDy=0;entryPerimeter=0;strokeWidth=2;" edge="1" parent="1">
          <mxGeometry relative="1" as="geometry">
            <mxPoint x="306" y="791" as="sourcePoint" />
            <mxPoint x="306.04999999999995" y="836.5" as="targetPoint" />
          </mxGeometry>
        </mxCell>
        <mxCell id="5SNasLUA0fVGktQmLtoh-100" value="" style="shape=image;verticalLabelPosition=bottom;labelBackgroundColor=default;verticalAlign=top;aspect=fixed;imageAspect=0;image=https://images.freeimages.com/vhq/images/previews/20d/logic-xor-symbol-clip-art-76039.jpg;" vertex="1" parent="1">
          <mxGeometry x="291" y="838" width="30" height="30" as="geometry" />
        </mxCell>
        <mxCell id="5SNasLUA0fVGktQmLtoh-101" style="edgeStyle=orthogonalEdgeStyle;rounded=0;orthogonalLoop=1;jettySize=auto;html=1;entryX=0.535;entryY=0.025;entryDx=0;entryDy=0;entryPerimeter=0;strokeWidth=2;" edge="1" parent="1">
          <mxGeometry relative="1" as="geometry">
            <mxPoint x="306" y="870" as="sourcePoint" />
            <mxPoint x="306.04999999999995" y="915.5" as="targetPoint" />
          </mxGeometry>
        </mxCell>
        <mxCell id="5SNasLUA0fVGktQmLtoh-103" style="edgeStyle=orthogonalEdgeStyle;rounded=0;orthogonalLoop=1;jettySize=auto;html=1;entryX=0;entryY=0.5;entryDx=0;entryDy=0;strokeWidth=2;" edge="1" parent="1">
          <mxGeometry relative="1" as="geometry">
            <mxPoint x="233" y="851" as="sourcePoint" />
            <mxPoint x="288" y="851" as="targetPoint" />
          </mxGeometry>
        </mxCell>
        <mxCell id="5SNasLUA0fVGktQmLtoh-105" value="" style="endArrow=none;html=1;rounded=0;strokeWidth=2;endFill=0;" edge="1" parent="1">
          <mxGeometry width="50" height="50" relative="1" as="geometry">
            <mxPoint x="-50" y="890" as="sourcePoint" />
            <mxPoint x="300" y="660" as="targetPoint" />
            <Array as="points">
              <mxPoint x="40" y="890" />
              <mxPoint x="40" y="780" />
              <mxPoint x="40" y="660" />
            </Array>
          </mxGeometry>
        </mxCell>
        <mxCell id="5SNasLUA0fVGktQmLtoh-106" value="block cipher&lt;br style=&quot;font-size: 21px;&quot;&gt;encryption" style="rounded=0;whiteSpace=wrap;html=1;fontSize=21;strokeWidth=2;" vertex="1" parent="1">
          <mxGeometry x="584" y="710" width="190" height="70" as="geometry" />
        </mxCell>
        <mxCell id="5SNasLUA0fVGktQmLtoh-107" value="" style="shape=table;startSize=0;container=1;collapsible=0;childLayout=tableLayout;strokeWidth=2;" vertex="1" parent="1">
          <mxGeometry x="564" y="918" width="230" height="20" as="geometry" />
        </mxCell>
        <mxCell id="5SNasLUA0fVGktQmLtoh-108" value="" style="shape=tableRow;horizontal=0;startSize=0;swimlaneHead=0;swimlaneBody=0;strokeColor=inherit;top=0;left=0;bottom=0;right=0;collapsible=0;dropTarget=0;fillColor=none;points=[[0,0.5],[1,0.5]];portConstraint=eastwest;" vertex="1" parent="5SNasLUA0fVGktQmLtoh-107">
          <mxGeometry width="230" height="20" as="geometry" />
        </mxCell>
        <mxCell id="5SNasLUA0fVGktQmLtoh-109" value="" style="shape=partialRectangle;html=1;whiteSpace=wrap;connectable=0;strokeColor=inherit;overflow=hidden;fillColor=none;top=0;left=0;bottom=0;right=0;pointerEvents=1;" vertex="1" parent="5SNasLUA0fVGktQmLtoh-108">
          <mxGeometry width="23" height="20" as="geometry">
            <mxRectangle width="23" height="20" as="alternateBounds" />
          </mxGeometry>
        </mxCell>
        <mxCell id="5SNasLUA0fVGktQmLtoh-110" value="" style="shape=partialRectangle;html=1;whiteSpace=wrap;connectable=0;strokeColor=inherit;overflow=hidden;fillColor=none;top=0;left=0;bottom=0;right=0;pointerEvents=1;" vertex="1" parent="5SNasLUA0fVGktQmLtoh-108">
          <mxGeometry x="23" width="23" height="20" as="geometry">
            <mxRectangle width="23" height="20" as="alternateBounds" />
          </mxGeometry>
        </mxCell>
        <mxCell id="5SNasLUA0fVGktQmLtoh-111" value="" style="shape=partialRectangle;html=1;whiteSpace=wrap;connectable=0;strokeColor=inherit;overflow=hidden;fillColor=none;top=0;left=0;bottom=0;right=0;pointerEvents=1;" vertex="1" parent="5SNasLUA0fVGktQmLtoh-108">
          <mxGeometry x="46" width="23" height="20" as="geometry">
            <mxRectangle width="23" height="20" as="alternateBounds" />
          </mxGeometry>
        </mxCell>
        <mxCell id="5SNasLUA0fVGktQmLtoh-112" value="" style="shape=partialRectangle;html=1;whiteSpace=wrap;connectable=0;strokeColor=inherit;overflow=hidden;fillColor=none;top=0;left=0;bottom=0;right=0;pointerEvents=1;" vertex="1" parent="5SNasLUA0fVGktQmLtoh-108">
          <mxGeometry x="69" width="23" height="20" as="geometry">
            <mxRectangle width="23" height="20" as="alternateBounds" />
          </mxGeometry>
        </mxCell>
        <mxCell id="5SNasLUA0fVGktQmLtoh-113" value="" style="shape=partialRectangle;html=1;whiteSpace=wrap;connectable=0;strokeColor=inherit;overflow=hidden;fillColor=none;top=0;left=0;bottom=0;right=0;pointerEvents=1;" vertex="1" parent="5SNasLUA0fVGktQmLtoh-108">
          <mxGeometry x="92" width="23" height="20" as="geometry">
            <mxRectangle width="23" height="20" as="alternateBounds" />
          </mxGeometry>
        </mxCell>
        <mxCell id="5SNasLUA0fVGktQmLtoh-114" value="" style="shape=partialRectangle;html=1;whiteSpace=wrap;connectable=0;strokeColor=inherit;overflow=hidden;fillColor=none;top=0;left=0;bottom=0;right=0;pointerEvents=1;" vertex="1" parent="5SNasLUA0fVGktQmLtoh-108">
          <mxGeometry x="115" width="23" height="20" as="geometry">
            <mxRectangle width="23" height="20" as="alternateBounds" />
          </mxGeometry>
        </mxCell>
        <mxCell id="5SNasLUA0fVGktQmLtoh-115" value="" style="shape=partialRectangle;html=1;whiteSpace=wrap;connectable=0;strokeColor=inherit;overflow=hidden;fillColor=none;top=0;left=0;bottom=0;right=0;pointerEvents=1;" vertex="1" parent="5SNasLUA0fVGktQmLtoh-108">
          <mxGeometry x="138" width="23" height="20" as="geometry">
            <mxRectangle width="23" height="20" as="alternateBounds" />
          </mxGeometry>
        </mxCell>
        <mxCell id="5SNasLUA0fVGktQmLtoh-116" value="" style="shape=partialRectangle;html=1;whiteSpace=wrap;connectable=0;strokeColor=inherit;overflow=hidden;fillColor=none;top=0;left=0;bottom=0;right=0;pointerEvents=1;" vertex="1" parent="5SNasLUA0fVGktQmLtoh-108">
          <mxGeometry x="161" width="23" height="20" as="geometry">
            <mxRectangle width="23" height="20" as="alternateBounds" />
          </mxGeometry>
        </mxCell>
        <mxCell id="5SNasLUA0fVGktQmLtoh-117" value="" style="shape=partialRectangle;html=1;whiteSpace=wrap;connectable=0;strokeColor=inherit;overflow=hidden;fillColor=none;top=0;left=0;bottom=0;right=0;pointerEvents=1;" vertex="1" parent="5SNasLUA0fVGktQmLtoh-108">
          <mxGeometry x="184" width="23" height="20" as="geometry">
            <mxRectangle width="23" height="20" as="alternateBounds" />
          </mxGeometry>
        </mxCell>
        <mxCell id="5SNasLUA0fVGktQmLtoh-118" value="" style="shape=partialRectangle;html=1;whiteSpace=wrap;connectable=0;strokeColor=inherit;overflow=hidden;fillColor=none;top=0;left=0;bottom=0;right=0;pointerEvents=1;" vertex="1" parent="5SNasLUA0fVGktQmLtoh-108">
          <mxGeometry x="207" width="23" height="20" as="geometry">
            <mxRectangle width="23" height="20" as="alternateBounds" />
          </mxGeometry>
        </mxCell>
        <mxCell id="5SNasLUA0fVGktQmLtoh-119" value="" style="shape=table;startSize=0;container=1;collapsible=0;childLayout=tableLayout;strokeWidth=2;" vertex="1" parent="1">
          <mxGeometry x="435" y="868" width="230" height="20" as="geometry" />
        </mxCell>
        <mxCell id="5SNasLUA0fVGktQmLtoh-120" value="" style="shape=tableRow;horizontal=0;startSize=0;swimlaneHead=0;swimlaneBody=0;strokeColor=inherit;top=0;left=0;bottom=0;right=0;collapsible=0;dropTarget=0;fillColor=none;points=[[0,0.5],[1,0.5]];portConstraint=eastwest;" vertex="1" parent="5SNasLUA0fVGktQmLtoh-119">
          <mxGeometry width="230" height="20" as="geometry" />
        </mxCell>
        <mxCell id="5SNasLUA0fVGktQmLtoh-121" value="" style="shape=partialRectangle;html=1;whiteSpace=wrap;connectable=0;strokeColor=inherit;overflow=hidden;fillColor=none;top=0;left=0;bottom=0;right=0;pointerEvents=1;" vertex="1" parent="5SNasLUA0fVGktQmLtoh-120">
          <mxGeometry width="23" height="20" as="geometry">
            <mxRectangle width="23" height="20" as="alternateBounds" />
          </mxGeometry>
        </mxCell>
        <mxCell id="5SNasLUA0fVGktQmLtoh-122" value="" style="shape=partialRectangle;html=1;whiteSpace=wrap;connectable=0;strokeColor=inherit;overflow=hidden;fillColor=none;top=0;left=0;bottom=0;right=0;pointerEvents=1;" vertex="1" parent="5SNasLUA0fVGktQmLtoh-120">
          <mxGeometry x="23" width="23" height="20" as="geometry">
            <mxRectangle width="23" height="20" as="alternateBounds" />
          </mxGeometry>
        </mxCell>
        <mxCell id="5SNasLUA0fVGktQmLtoh-123" value="" style="shape=partialRectangle;html=1;whiteSpace=wrap;connectable=0;strokeColor=inherit;overflow=hidden;fillColor=none;top=0;left=0;bottom=0;right=0;pointerEvents=1;" vertex="1" parent="5SNasLUA0fVGktQmLtoh-120">
          <mxGeometry x="46" width="23" height="20" as="geometry">
            <mxRectangle width="23" height="20" as="alternateBounds" />
          </mxGeometry>
        </mxCell>
        <mxCell id="5SNasLUA0fVGktQmLtoh-124" value="" style="shape=partialRectangle;html=1;whiteSpace=wrap;connectable=0;strokeColor=inherit;overflow=hidden;fillColor=none;top=0;left=0;bottom=0;right=0;pointerEvents=1;" vertex="1" parent="5SNasLUA0fVGktQmLtoh-120">
          <mxGeometry x="69" width="23" height="20" as="geometry">
            <mxRectangle width="23" height="20" as="alternateBounds" />
          </mxGeometry>
        </mxCell>
        <mxCell id="5SNasLUA0fVGktQmLtoh-125" value="" style="shape=partialRectangle;html=1;whiteSpace=wrap;connectable=0;strokeColor=inherit;overflow=hidden;fillColor=none;top=0;left=0;bottom=0;right=0;pointerEvents=1;" vertex="1" parent="5SNasLUA0fVGktQmLtoh-120">
          <mxGeometry x="92" width="26" height="20" as="geometry">
            <mxRectangle width="26" height="20" as="alternateBounds" />
          </mxGeometry>
        </mxCell>
        <mxCell id="5SNasLUA0fVGktQmLtoh-126" value="" style="shape=partialRectangle;html=1;whiteSpace=wrap;connectable=0;strokeColor=inherit;overflow=hidden;fillColor=none;top=0;left=0;bottom=0;right=0;pointerEvents=1;" vertex="1" parent="5SNasLUA0fVGktQmLtoh-120">
          <mxGeometry x="118" width="20" height="20" as="geometry">
            <mxRectangle width="20" height="20" as="alternateBounds" />
          </mxGeometry>
        </mxCell>
        <mxCell id="5SNasLUA0fVGktQmLtoh-127" value="" style="shape=partialRectangle;html=1;whiteSpace=wrap;connectable=0;strokeColor=inherit;overflow=hidden;fillColor=none;top=0;left=0;bottom=0;right=0;pointerEvents=1;" vertex="1" parent="5SNasLUA0fVGktQmLtoh-120">
          <mxGeometry x="138" width="23" height="20" as="geometry">
            <mxRectangle width="23" height="20" as="alternateBounds" />
          </mxGeometry>
        </mxCell>
        <mxCell id="5SNasLUA0fVGktQmLtoh-128" value="" style="shape=partialRectangle;html=1;whiteSpace=wrap;connectable=0;strokeColor=inherit;overflow=hidden;fillColor=none;top=0;left=0;bottom=0;right=0;pointerEvents=1;" vertex="1" parent="5SNasLUA0fVGktQmLtoh-120">
          <mxGeometry x="161" width="23" height="20" as="geometry">
            <mxRectangle width="23" height="20" as="alternateBounds" />
          </mxGeometry>
        </mxCell>
        <mxCell id="5SNasLUA0fVGktQmLtoh-129" value="" style="shape=partialRectangle;html=1;whiteSpace=wrap;connectable=0;strokeColor=inherit;overflow=hidden;fillColor=none;top=0;left=0;bottom=0;right=0;pointerEvents=1;" vertex="1" parent="5SNasLUA0fVGktQmLtoh-120">
          <mxGeometry x="184" width="23" height="20" as="geometry">
            <mxRectangle width="23" height="20" as="alternateBounds" />
          </mxGeometry>
        </mxCell>
        <mxCell id="5SNasLUA0fVGktQmLtoh-130" value="" style="shape=partialRectangle;html=1;whiteSpace=wrap;connectable=0;strokeColor=inherit;overflow=hidden;fillColor=none;top=0;left=0;bottom=0;right=0;pointerEvents=1;" vertex="1" parent="5SNasLUA0fVGktQmLtoh-120">
          <mxGeometry x="207" width="23" height="20" as="geometry">
            <mxRectangle width="23" height="20" as="alternateBounds" />
          </mxGeometry>
        </mxCell>
        <mxCell id="5SNasLUA0fVGktQmLtoh-131" value="&lt;font style=&quot;font-size: 21px;&quot;&gt;Ciphertext&lt;/font&gt;" style="text;html=1;align=center;verticalAlign=middle;resizable=0;points=[];autosize=1;strokeColor=none;fillColor=none;" vertex="1" parent="1">
          <mxGeometry x="608" y="932" width="120" height="40" as="geometry" />
        </mxCell>
        <mxCell id="5SNasLUA0fVGktQmLtoh-132" value="&lt;font style=&quot;font-size: 21px;&quot;&gt;Plaintext&lt;/font&gt;" style="text;html=1;align=center;verticalAlign=middle;resizable=0;points=[];autosize=1;strokeColor=none;fillColor=none;" vertex="1" parent="1">
          <mxGeometry x="500" y="828" width="100" height="40" as="geometry" />
        </mxCell>
        <mxCell id="5SNasLUA0fVGktQmLtoh-133" style="edgeStyle=orthogonalEdgeStyle;rounded=0;orthogonalLoop=1;jettySize=auto;html=1;entryX=0;entryY=0.5;entryDx=0;entryDy=0;strokeWidth=2;" edge="1" parent="1">
          <mxGeometry relative="1" as="geometry">
            <mxPoint x="524" y="745" as="sourcePoint" />
            <mxPoint x="579" y="745" as="targetPoint" />
          </mxGeometry>
        </mxCell>
        <mxCell id="5SNasLUA0fVGktQmLtoh-134" value="&lt;font style=&quot;font-size: 21px;&quot;&gt;Key&lt;/font&gt;" style="text;html=1;align=center;verticalAlign=middle;resizable=0;points=[];autosize=1;strokeColor=none;fillColor=none;" vertex="1" parent="1">
          <mxGeometry x="469" y="725" width="60" height="40" as="geometry" />
        </mxCell>
        <mxCell id="5SNasLUA0fVGktQmLtoh-135" style="edgeStyle=orthogonalEdgeStyle;rounded=0;orthogonalLoop=1;jettySize=auto;html=1;strokeWidth=2;" edge="1" parent="1">
          <mxGeometry relative="1" as="geometry">
            <mxPoint x="530" y="660" as="sourcePoint" />
            <mxPoint x="678" y="698" as="targetPoint" />
            <Array as="points">
              <mxPoint x="678" y="658" />
              <mxPoint x="678" y="698" />
            </Array>
          </mxGeometry>
        </mxCell>
        <mxCell id="5SNasLUA0fVGktQmLtoh-136" style="edgeStyle=orthogonalEdgeStyle;rounded=0;orthogonalLoop=1;jettySize=auto;html=1;entryX=0.535;entryY=0.025;entryDx=0;entryDy=0;entryPerimeter=0;strokeWidth=2;" edge="1" parent="1">
          <mxGeometry relative="1" as="geometry">
            <mxPoint x="680" y="791" as="sourcePoint" />
            <mxPoint x="680.05" y="836.5" as="targetPoint" />
          </mxGeometry>
        </mxCell>
        <mxCell id="5SNasLUA0fVGktQmLtoh-137" value="" style="shape=image;verticalLabelPosition=bottom;labelBackgroundColor=default;verticalAlign=top;aspect=fixed;imageAspect=0;image=https://images.freeimages.com/vhq/images/previews/20d/logic-xor-symbol-clip-art-76039.jpg;" vertex="1" parent="1">
          <mxGeometry x="665" y="838" width="30" height="30" as="geometry" />
        </mxCell>
        <mxCell id="5SNasLUA0fVGktQmLtoh-138" style="edgeStyle=orthogonalEdgeStyle;rounded=0;orthogonalLoop=1;jettySize=auto;html=1;entryX=0.535;entryY=0.025;entryDx=0;entryDy=0;entryPerimeter=0;strokeWidth=2;" edge="1" parent="1">
          <mxGeometry relative="1" as="geometry">
            <mxPoint x="680" y="870" as="sourcePoint" />
            <mxPoint x="680.05" y="915.5" as="targetPoint" />
          </mxGeometry>
        </mxCell>
        <mxCell id="5SNasLUA0fVGktQmLtoh-139" style="edgeStyle=orthogonalEdgeStyle;rounded=0;orthogonalLoop=1;jettySize=auto;html=1;entryX=0;entryY=0.5;entryDx=0;entryDy=0;strokeWidth=2;" edge="1" parent="1">
          <mxGeometry relative="1" as="geometry">
            <mxPoint x="607" y="851" as="sourcePoint" />
            <mxPoint x="662" y="851" as="targetPoint" />
          </mxGeometry>
        </mxCell>
        <mxCell id="5SNasLUA0fVGktQmLtoh-140" value="" style="endArrow=none;html=1;rounded=0;strokeWidth=2;endFill=0;" edge="1" parent="1">
          <mxGeometry width="50" height="50" relative="1" as="geometry">
            <mxPoint x="322" y="888" as="sourcePoint" />
            <mxPoint x="430" y="658" as="targetPoint" />
            <Array as="points">
              <mxPoint x="412" y="888" />
              <mxPoint x="412" y="778" />
              <mxPoint x="412" y="658" />
            </Array>
          </mxGeometry>
        </mxCell>
        <mxCell id="5SNasLUA0fVGktQmLtoh-141" value="&lt;font style=&quot;font-size: 24px;&quot;&gt;... ...&lt;/font&gt;" style="text;html=1;align=center;verticalAlign=middle;resizable=0;points=[];autosize=1;strokeColor=none;fillColor=none;strokeWidth=4;fontSize=24;fontStyle=1" vertex="1" parent="1">
          <mxGeometry x="445" y="633" width="70" height="40" as="geometry" />
        </mxCell>
      </root>
    </mxGraphModel>
  </diagram>
</mxfile>
